<svg viewBox="0 0 32 32" xmlns="http://www.w3.org/2000/svg"><path d="m29.4141 24-17.4141-17.4141a2.0476 2.0476 0 0 0 -2.8281 0l-2.586 2.586a2.0021 2.0021 0 0 0 0 2.8281l17.4131 17.4141a2.0024 2.0024 0 0 0 2.8281 0l2.587-2.5865a1.9993 1.9993 0 0 0 0-2.8281zm-21.4141-13.4141 2.5859-2.5859 5 5-2.5866 2.5869-5-5zm17.4131 17.4141-11-10.999 2.5869-2.5869 11 11z"/><path d="m2.5858 14.5858h2.8284v2.8284h-2.8284z" transform="matrix(.70710678 -.70710678 .70710678 .70710678 -10.1421 7.5147)"/><path d="m14.5858 2.5858h2.8284v2.8284h-2.8284z" transform="matrix(.70710678 -.70710678 .70710678 .70710678 1.8579 12.4853)"/><path d="m2.5858 2.5858h2.8284v2.8284h-2.8284z" transform="matrix(.70710678 -.70710678 .70710678 .70710678 -1.6569 4)"/><path d="m0 0h32v32h-32z" fill="none"/></svg>